<?xml version="1.0" encoding="utf-8"?>
<!-- Generator: Adobe Illustrator 16.0.0, SVG Export Plug-In . SVG Version: 6.00 Build 0)  -->
<!DOCTYPE svg PUBLIC "-//W3C//DTD SVG 1.1//EN" "http://www.w3.org/Graphics/SVG/1.1/DTD/svg11.dtd">
<svg version="1.1" id="Layer_1" xmlns="http://www.w3.org/2000/svg" xmlns:xlink="http://www.w3.org/1999/xlink" x="0px" y="0px"
	 width="100px" height="100px" viewBox="0 0 100 100" enable-background="new 0 0 100 100" xml:space="preserve">
<polygon fill="none" stroke="#FFFFFF" stroke-linejoin="round" stroke-miterlimit="10" points="36.178,23.168 39.62,25.996 
	42.755,32.327 39.19,36.446 35.809,35.892 "/>
<polygon fill="none" stroke="#FFFFFF" stroke-linejoin="round" stroke-miterlimit="10" points="19.888,14.009 36.178,23.168 
	35.809,35.892 27.265,40.257 20.134,34.91 16.138,16.16 "/>
<polygon fill="none" stroke="#FFFFFF" stroke-linejoin="round" stroke-miterlimit="10" points="22.776,42.654 27.265,40.257 
	20.134,34.91 "/>
<polygon fill="none" stroke="#FFFFFF" stroke-linejoin="round" stroke-miterlimit="10" points="39.19,36.446 24.19,46.158 
	22.776,42.654 35.809,35.892 "/>
<polygon fill="none" stroke="#FFFFFF" stroke-linejoin="round" stroke-miterlimit="10" points="49.517,49.724 39.19,36.446 
	43.308,49.048 "/>
<polygon fill="none" stroke="#FFFFFF" stroke-linejoin="round" stroke-miterlimit="10" points="24.19,46.158 36.792,51.016 
	27.265,61.095 22.039,52.553 "/>
<polygon fill="none" stroke="#FFFFFF" stroke-linejoin="round" stroke-miterlimit="10" points="43.308,49.048 36.792,51.016 
	38.514,55.501 41.771,59.19 "/>
<path fill="none" stroke="#FFFFFF" stroke-linejoin="round" stroke-miterlimit="10" d="M49.517,49.724c0,0-7.812,9.914-7.745,9.466
	c0.067-0.449,1.536-10.142,1.536-10.142L49.517,49.724z"/>
<polyline fill="none" stroke="#FFFFFF" stroke-linejoin="round" stroke-miterlimit="10" points="31.895,56.196 34.948,57.284 
	38.514,55.501 "/>
<path fill="none" stroke="#FFFFFF" stroke-linejoin="round" stroke-miterlimit="10" d="M49.517,49.724l-8.913,21.945l1.168-12.479
	l-4.795,1.721c0,0-2.028-3.627-1.918-3.682"/>
<polygon fill="none" stroke="#FFFFFF" stroke-linejoin="round" stroke-miterlimit="10" points="27.265,61.095 40.604,71.669 
	39.559,80.274 35.809,73.021 33.534,72.837 "/>
<polyline fill="none" stroke="#FFFFFF" stroke-linejoin="round" stroke-miterlimit="10" points="40.604,71.669 44.722,77.815 
	46.075,81.505 49.579,82.733 "/>
<polyline fill="none" stroke="#FFFFFF" stroke-linejoin="round" stroke-miterlimit="10" points="49.579,75.479 46.966,75.694 
	44.722,77.815 "/>
<polyline fill="none" stroke="#FFFFFF" stroke-linejoin="round" stroke-miterlimit="10" points="39.559,80.274 43.062,85.376 
	49.517,85.991 "/>
<polyline fill="none" stroke="#FFFFFF" stroke-linejoin="round" stroke-miterlimit="10" points="49.394,36.015 59.722,36.446 
	56.156,32.327 59.291,25.996 49.456,25.258 39.62,25.996 42.755,32.327 39.19,36.446 49.517,36.015 "/>
<polygon fill="none" stroke="#FFFFFF" stroke-linejoin="round" stroke-miterlimit="10" points="62.733,23.168 59.291,25.996 
	56.156,32.327 59.722,36.446 63.103,35.892 "/>
<polygon fill="none" stroke="#FFFFFF" stroke-linejoin="round" stroke-miterlimit="10" points="79.023,14.009 62.733,23.168 
	63.103,35.892 71.646,40.257 78.777,34.91 82.773,16.16 "/>
<polygon fill="none" stroke="#FFFFFF" stroke-linejoin="round" stroke-miterlimit="10" points="76.134,42.654 71.646,40.257 
	78.777,34.91 "/>
<polygon fill="none" stroke="#FFFFFF" stroke-linejoin="round" stroke-miterlimit="10" points="59.722,36.446 74.721,46.158 
	76.134,42.654 63.103,35.892 "/>
<polygon fill="none" stroke="#FFFFFF" stroke-linejoin="round" stroke-miterlimit="10" points="49.394,49.724 59.722,36.446 
	55.603,49.048 "/>
<polygon fill="none" stroke="#FFFFFF" stroke-linejoin="round" stroke-miterlimit="10" points="74.721,46.158 62.119,51.016 
	71.646,61.095 76.872,52.553 "/>
<polygon fill="none" stroke="#FFFFFF" stroke-linejoin="round" stroke-miterlimit="10" points="55.603,49.048 62.119,51.016 
	60.397,55.501 57.14,59.19 "/>
<path fill="none" stroke="#FFFFFF" stroke-linejoin="round" stroke-miterlimit="10" d="M49.394,49.724c0,0,7.813,9.914,7.746,9.466
	c-0.068-0.449-1.537-10.142-1.537-10.142L49.394,49.724z"/>
<polyline fill="none" stroke="#FFFFFF" stroke-linejoin="round" stroke-miterlimit="10" points="67.017,56.196 63.963,57.284 
	60.397,55.501 "/>
<path fill="none" stroke="#FFFFFF" stroke-linejoin="round" stroke-miterlimit="10" d="M49.394,49.724l8.914,21.945L57.14,59.19
	l4.795,1.721c0,0,2.028-3.627,1.918-3.682"/>
<polygon fill="none" stroke="#FFFFFF" stroke-linejoin="round" stroke-miterlimit="10" points="71.646,61.095 58.308,71.669 
	59.353,80.274 63.103,73.021 65.377,72.837 "/>
<polyline fill="none" stroke="#FFFFFF" stroke-linejoin="round" stroke-miterlimit="10" points="58.308,71.669 54.188,77.815 
	52.837,81.505 49.333,82.733 "/>
<polyline fill="none" stroke="#FFFFFF" stroke-linejoin="round" stroke-miterlimit="10" points="49.333,75.479 51.945,75.694 
	54.188,77.815 "/>
<polyline fill="none" stroke="#FFFFFF" stroke-linejoin="round" stroke-miterlimit="10" points="59.353,80.274 55.849,85.376 
	49.394,85.991 "/>
</svg>
