<?xml version="1.0" encoding="utf-8"?>
<!-- Generator: Adobe Illustrator 16.0.0, SVG Export Plug-In . SVG Version: 6.00 Build 0)  -->
<!DOCTYPE svg PUBLIC "-//W3C//DTD SVG 1.1//EN" "http://www.w3.org/Graphics/SVG/1.1/DTD/svg11.dtd">
<svg version="1.1" id="Réteg_1" xmlns="http://www.w3.org/2000/svg" xmlns:xlink="http://www.w3.org/1999/xlink" x="0px" y="0px"
	 width="100px" height="100px" viewBox="0 0 100 100" enable-background="new 0 0 100 100" xml:space="preserve">
<g>
	<path fill="#BA2525" d="M335.314-25.591c-1.945,0.469-3.325,15.423-3.526,20.855c0,0,1.201-16.43,3.884-19.783l2.219-0.873
		C337.891-25.392,337.259-26.061,335.314-25.591z"/>
	<path fill="#BA2525" d="M343.256-66.837c0,0-0.671-2.481,1.945-2.75c0,0,2.481-2.884,1.207-5.298c0,0-16.565-11.669-31.521-7.512
		c0,0-2.683,1.586-3.354,3.309c-0.67,1.722-0.604,8.227,7.512,13.056l12.541,5.23C331.587-60.802,338.896-59.46,343.256-66.837z"/>
	<path fill="#BA2525" d="M351.236-63.148c-9.992,3.521-8.853,6.438-4.465,9.389s4.465,4.963,4.331,11.133
		c-0.124,5.692,8.753,6.476,10.127,6.563v0.001c1.374-0.087,10.251-0.87,10.127-6.563c-0.134-6.17-0.057-8.182,4.331-11.133
		s5.527-5.868-4.465-9.389c0,0,4.694,2.95,1.476,6.438c-3.22,3.487-6.975,4.427-7.78,9.121c-0.688,4.015-3.025,3.419-3.688,3.162
		v-0.001c-0.663,0.257-3,0.853-3.688-3.162c-0.805-4.694-4.561-5.634-7.78-9.121C346.542-60.198,351.236-63.148,351.236-63.148z"/>
	<path fill="#BA2525" d="M313.681-37.463l-1.073,1.14c-4.023,8.853,0.402,14.956,0.402,14.956c3.957,2.279,11.2,9.724,11.2,9.724
		s2.347-6.706,2.347-12.943c0-6.236,0.402-9.725,0.402-9.725C315.559-41.42,313.681-37.463,313.681-37.463z"/>
	<path fill="#BA2525" d="M378.466-30.286c-1.208,0.335-1.409,2.615-1.409,2.615l-0.67,1.073c1.878,2.816-0.336,10.127-0.336,10.127
		h-1.14c-1.744-0.604-3.957-7.444-3.957-7.444l-0.805-0.135v3.019c-1.006,2.749-2.549,2.683-2.549,2.683
		c-2.414-0.47-3.018-3.823-3.42-5.566c-0.402-1.744-2.951-1.878-2.951-1.878v-0.001c0,0-2.549,0.134-2.951,1.878
		c-0.402,1.743-1.006,5.097-3.42,5.566c0,0-1.543,0.067-2.549-2.683v-3.018l-0.805,0.134c0,0-2.213,6.841-3.957,7.444h-1.14
		c0,0-2.213-7.311-0.336-10.127l-0.67-1.073c0,0-0.201-2.28-1.409-2.615l-3.688,8.114l-2.012-3.219c0,0,2.348,5.969,2.851,8.249
		s2.313,7.913,2.85,8.853c0.537,0.938,4.092,8.048,4.092,8.048l1.072,0.536c0,0,1.543-1.476,1.945-1.542
		c0.402-0.067,2.213,0.066,2.213,0.066l0.336,0.738l0.469,0.737c0,0,1.677-1.207,1.878-1.274c0.201-0.066,1.274-0.268,1.476-0.134
		s0.737,0.805,0.737,0.805l0.537-0.737l1.542-0.201l0.939,0.469v0.001l0.939-0.469l1.542,0.201l0.537,0.737
		c0,0,0.536-0.671,0.737-0.805s1.274,0.067,1.476,0.134c0.201,0.067,1.878,1.274,1.878,1.274l0.469-0.737l0.336-0.738
		c0,0,1.811-0.134,2.213-0.066c0.402,0.066,1.945,1.542,1.945,1.542l1.072-0.536c0,0,3.555-7.109,4.092-8.048
		c0.536-0.939,2.347-6.572,2.85-8.853s2.851-8.249,2.851-8.249l-2.012,3.219L378.466-30.286z"/>
	<path fill="#BA2525" d="M451.846,37.429h10.653c6.223-4.674,11.701-10.977,17.663-15.292c0.195-0.141,0.389-0.195,0.567-0.186V8.79
		c-0.747,0.666-1.504,1.319-2.248,1.987C469.444,18.884,458.557,26.937,451.846,37.429z"/>
	<path fill="#BA2525" d="M475.054,11.16c1.885-1.673,3.782-3.333,5.676-4.997V0.409c-4.548,3.816-8.968,7.789-13.278,11.849
		c-3.528,3.324-6.983,6.72-10.381,10.173c-4.141,5.025-8.261,10.066-12.512,14.998h4.947
		C455.845,27.046,466.112,19.094,475.054,11.16z"/>
	<path fill="#BA2525" d="M480.729-2.134v-2.782c-3.56,4.017-7.132,8.022-10.671,12.053C473.547,3.973,477.101,0.872,480.729-2.134z"
		/>
	<path fill="#BA2525" d="M465.556,37.429h0.479c7.603,0,13.857-5.776,14.617-13.178C475.494,28.09,470.737,33.173,465.556,37.429z"
		/>
	<path fill="#BA2525" d="M473.24-159.52c2.396-0.472,4.813-0.82,7.177-1.426c0.104-0.13,0.208-0.26,0.313-0.391v-25.539
		c0-8.117-6.58-14.696-14.695-14.696H256.425c-8.115,0-14.695,6.579-14.695,14.696V22.733c0,8.115,6.58,14.695,14.695,14.695h184.08
		c1.664-1.923,3.341-3.835,5.051-5.718c3.184-3.505,6.437-6.94,9.742-10.324c2.358-2.855,4.726-5.702,7.14-8.51
		c6.004-6.982,12.181-13.838,18.292-20.75V-156.23c-0.699,0.585-1.579,0.937-2.729,0.897c-0.934-0.033-1.242-1.039-0.707-1.707
		c0.376-0.47,0.753-0.941,1.129-1.411c-0.971,0.186-1.945,0.355-2.923,0.533c-0.438,0.08-2.819,0.476-4.223,0.776
		c-0.12,0.498-0.567,0.929-1.209,0.773c-0.052-0.013-0.411,0.203-0.524,0.224c-0.745,0.142-1.425-0.449-1.23-1.23
		C468.718-159,471.9-159.256,473.24-159.52z M418.803-198.929c0.964-0.265,2.285,0.319,2.46,1.397
		c0.009,0.057,0.043,0.145,0.055,0.176c0.033,0.07,0.066,0.141,0.102,0.211c0.107,0.212,0.219,0.422,0.33,0.633
		c0.584-0.514,1.084-1.121,1.525-1.831c1.356-2.187,4.817-0.18,3.453,2.019c-1.152,1.858-2.68,3.507-4.717,4.385
		c-0.955,0.411-2.196,0.337-2.736-0.718c-0.597-1.164-1.656-2.504-1.869-3.811C417.23-197.543,417.668-198.617,418.803-198.929z
		 M406.001-187.333c2.579,0,2.579,4,0,4S403.422-187.333,406.001-187.333z M397.898-173.759c2.017-2.739,4.514-4.757,7.272-6.718
		c2.16-1.535,4.224-3.188,6.266-4.869c-0.044-0.028-0.08-0.065-0.125-0.092c-0.845-0.273-1.662-0.465-2.244-0.598
		c-1.104-0.252-0.858-1.999,0.266-1.964c1.184,0.037,2.192,0.346,3.038,0.858c0.276,0.104,0.543,0.232,0.813,0.353
		c1.006-0.835,2.013-1.672,3.026-2.5c1.979-1.617,4.827,1.196,2.828,2.828c-0.865,0.707-1.723,1.424-2.579,2.144
		c0.3,0.452,0.499,0.957,0.589,1.51c2.14-1.045,4.303-2.037,6.545-2.872c1.88-0.7,3.398,2.045,1.945,3.343
		c-0.129,0.115-0.268,0.218-0.397,0.331c1.822-0.483,3.751,1.923,2.022,3.294c-1.539,1.222-2.978,2.535-4.354,3.906
		c0.269-0.142,0.537-0.277,0.806-0.422c2.104-1.132,3.813,1.42,2.424,3.141c-0.894,0.887-1.539,1.918-1.938,3.095
		c-0.763,1.742-2.838,1.082-3.459-0.323c-1.415,0.619-2.856,1.175-4.361,1.618c-1.575,0.463-3.32-1.478-2.258-2.938
		c0.559-0.768,1.136-1.515,1.723-2.252c-2.352,1.097-4.72,2.134-7.09,3.065c-1.693,0.665-2.942-1.386-2.322-2.794
		c-2.103,1.111-4.348,2.026-6.709,1.866C398.271-170.842,396.926-172.438,397.898-173.759z M298.138-169.171
		c0.876-1.376,2.107-2.313,3.551-2.578c0.376-0.34,0.817-0.298,1.152-0.066c0.072,0.005,0.143-0.001,0.216,0.007
		c0.036-0.017,0.07-0.039,0.106-0.055c0.249-0.114,0.487-0.131,0.699-0.086c0.361-0.101,0.749-0.023,0.959,0.292
		c0.036,0.01,0.079,0.016,0.112,0.027c0.551,0.189,0.801,0.667,0.698,1.23c-0.305,1.688-1.048,2.936-2.418,3.605
		c-0.043,0.035-0.081,0.075-0.125,0.108c-1.482,1.088-3.582,0.533-4.443-1.087C298.12-168.014,297.766-168.586,298.138-169.171z
		 M303.298-159.734c-0.345,0.843-0.744,1.798-1.84,1.604c-0.362-0.064-0.64-0.414-0.826-0.698c-0.168-0.256-0.191-0.31-0.338-0.464
		c-0.59-0.622-0.159-1.442,0.454-1.655c0.259-0.729,1.349-1.096,1.783-0.223c0.037,0.074,0.075,0.151,0.113,0.227
		C303.118-160.777,303.499-160.225,303.298-159.734z M261.172,19.53c-1.322,0.968-2.293,0.556-3.771,0.101
		c-0.575-0.177-0.755-0.694-0.668-1.155c-1.617-0.378-3.306-0.602-4.964-0.622c2.864,1.054,5.72,2.413,7.094,4.975
		c0.609,1.136-1.117,2.146-1.727,1.01c-1.773-3.306-6.838-4.281-10.069-5.541c-0.866-0.338-1.035-1.661,0-1.929
		c4.305-1.113,9.792-0.35,13.865,1.333C261.759,18.043,261.91,18.989,261.172,19.53z M415.667,34.667c-2.579,0-2.579-4,0-4
		S418.246,34.667,415.667,34.667z M439.496,34.275c-0.48,0.352-1.101,0.508-1.693,0.32c-0.191-0.061-0.386-0.117-0.583-0.16
		c-0.074-0.003-0.255-0.02-0.303-0.017c-0.048,0.002-0.071,0.002-0.099,0.002c-0.02,0.005-0.028,0.008-0.055,0.015
		c-0.19,0.047-0.377,0.101-0.565,0.16c-1.039,0.33-2.18-0.377-2.46-1.397c-0.298-1.082,0.359-2.131,1.397-2.46
		c0.981-0.312,1.962-0.368,2.943-0.188c0.259-0.133,0.563-0.217,0.922-0.217C441.402,30.333,441.564,33.796,439.496,34.275z
		 M448.667,19.667c-2.579,0-2.579-4,0-4S451.246,19.667,448.667,19.667z M464.308-85.011c-0.872,5.164-7.042,7.847-7.042,7.847
		c3.22,5.834-3.286,10.06-3.286,10.06c-0.268,5.029-4.762,9.725-6.236,13.413c-1.476,3.688-0.671,4.225-0.671,4.225
		c3.354,7.779,12.005,3.085,12.005,3.085c0.805,8.249-9.054,14.419-10.061,16.565c-1.006,2.146-1.072,5.968-3.688,8.114
		c-2.615,2.146-4.157,8.584-7.176,13.949c-3.018,5.365-8.651,8.584-13.748,8.048s-5.566,0-5.566,0c2.817,3.822,0,6.237,0,6.237
		c-10.328-3.756-16.766-0.805-16.766-0.805s-1.1,0.054-1.141,0.033c-0.134-0.067-2.512,0.675-2.512,0.675
		c-0.729,0.293-1.713,0.432-1.713,0.432c-5.097,1.476-9.591,8.518-17.437,13.815c-7.847,5.298-18.041,2.615-18.041,2.615v-0.001
		c0,0-10.194,2.683-18.041-2.615c-7.846-5.298-12.34-12.34-17.437-13.815l-1.71-0.536c0,0-2.381-0.638-2.515-0.57
		c-0.089,0.044-7.578-2.984-17.906,0.771c0,0-2.816-2.414,0-6.237c0,0-0.47-0.536-5.566,0c-5.097,0.537-10.73-2.683-13.749-8.048
		c-3.018-5.365-4.56-11.803-7.176-13.949c-2.615-2.146-2.682-5.969-3.688-8.114c-1.006-2.146-10.865-8.316-10.061-16.565
		c0,0,8.652,4.694,12.005-3.085c0,0,0.805-0.536-0.671-4.225c-1.475-3.688-5.969-8.384-6.236-13.413c0,0-6.506-4.226-3.287-10.06
		c0,0-6.17-2.683-7.041-7.847c0,0-12.877-10.999,6.305-21.595c0,0,7.779-3.219-1.543-16.297c0,0,12.541,6.975,10.864,11.401
		c-1.677,4.426-8.384,10.864,3.421,17.906c0,0,3.822,1.677,6.236-0.805l-4.225-16.163l-2.08-8.383l-0.201-2.079l-0.334-2.683
		l-0.939-2.414L274.783-128l-3.554-15.492l-0.201-2.548c0,0-0.201-1.274-0.27-1.677c-0.066-0.402-0.066-2.816-0.066-2.816
		l-0.738-1.342l-0.066-7.377l2.012-5.365c0,0,0.604-14.218,3.085-18.51l0.671-1.811c0,0-0.336-2.884,0.737-3.151
		c1.073-0.27,3.555,1.273,3.823,3.755c0.268,2.481,2.146,2.749,2.146,2.749s3.152,4.762,4.694,13.213l1.006,2.279
		c0,0,1.074,1.811,1.609,3.287c0.537,1.475,1.208,3.486,2.348,5.499c1.141,2.012,3.957,8.248,3.957,8.248l7.377,13.548
		c0,0-1.408-11.469,2.012-11.871l2.211,0.402l3.691,2.481l3.085,2.214l1.072,0.737h1.007l3.219,2.414c0,0,23.07,10.328,41.58,8.518
		v0.001c18.51,1.811,41.58-8.518,41.58-8.518l3.219-2.414h1.007l1.072-0.738l3.085-2.213l3.691-2.481l2.211-0.402
		c3.42,0.402,2.012,11.87,2.012,11.87l7.377-13.547c0,0,2.816-6.236,3.957-8.249c1.14-2.012,1.811-4.023,2.347-5.499
		c0.537-1.476,1.61-3.286,1.61-3.286l1.006-2.279c1.542-8.451,4.694-13.213,4.694-13.213s1.878-0.268,2.146-2.749
		c0.269-2.481,2.75-4.024,3.823-3.756s0.737,3.152,0.737,3.152l0.671,1.811c2.481,4.292,3.085,18.51,3.085,18.51l2.012,5.365
		l-0.067,7.377l-0.737,1.342c0,0,0,2.414-0.067,2.816c-0.066,0.402-0.268,1.677-0.268,1.677l-0.201,2.548l-3.555,15.492
		l-0.872,1.878l-0.938,2.414l-0.336,2.683l-0.201,2.079l-2.079,8.383l-4.225,16.163c2.414,2.481,6.237,0.805,6.237,0.805
		c11.803-7.042,5.097-13.48,3.42-17.906c-1.677-4.427,10.864-11.401,10.864-11.401c-9.321,13.078-1.542,16.297-1.542,16.297
		C477.184-96.01,464.308-85.011,464.308-85.011z"/>
	<path fill="#BA2525" d="M408.778-37.462c0,0-1.878-3.957-13.278,3.151c0,0,0.402,3.487,0.402,9.725s2.347,12.943,2.347,12.943
		s7.243-7.444,11.2-9.725c0,0,4.426-6.103,0.402-14.955L408.778-37.462z"/>
	<path fill="#BA2525" d="M410.925-79.088c-0.671-1.722-3.354-3.308-3.354-3.308c-14.955-4.158-31.521,7.512-31.521,7.512
		c-1.274,2.414,1.207,5.298,1.207,5.298c2.616,0.269,1.945,2.75,1.945,2.75c4.359,7.377,11.669,6.035,11.669,6.035l12.541-5.23
		C411.528-70.86,411.595-77.365,410.925-79.088z"/>
	<path fill="#BA2525" d="M387.22-25.462c-1.944-0.47-2.651,0.071-2.651,0.071l2.271,0.756c2.683,3.354,3.831,19.9,3.831,19.9
		C390.47-10.167,389.165-24.992,387.22-25.462z"/>
</g>
<g>
	<path fill="#BA2525" d="M39.311,73.296c-0.802,0.194-1.372,6.361-1.454,8.603c0,0,0.495-6.776,1.602-8.16l0.915-0.36
		C40.373,73.378,40.113,73.103,39.311,73.296z"/>
	<path fill="#BA2525" d="M42.586,56.284c0,0-0.276-1.023,0.803-1.136c0,0,1.024-1.188,0.498-2.185c0,0-6.833-4.813-13.001-3.098
		c0,0-1.106,0.654-1.383,1.365c-0.276,0.71-0.249,3.393,3.099,5.385l5.172,2.157C37.773,58.772,40.788,59.327,42.586,56.284z"/>
	<path fill="#BA2525" d="M45.878,57.806c-4.122,1.451-3.651,2.654-1.842,3.872c1.81,1.217,1.842,2.047,1.787,4.591
		c-0.051,2.349,3.61,2.672,4.177,2.708l0,0c0.566-0.036,4.229-0.359,4.177-2.708c-0.055-2.544-0.023-3.374,1.786-4.591
		c1.811-1.218,2.281-2.421-1.841-3.872c0,0,1.937,1.216,0.608,2.654c-1.328,1.439-2.877,1.826-3.209,3.762
		c-0.284,1.657-1.248,1.411-1.521,1.305l0,0c-0.273,0.105-1.238,0.353-1.521-1.305c-0.332-1.936-1.881-2.322-3.209-3.762
		C43.942,59.021,45.878,57.806,45.878,57.806z"/>
	<path fill="#BA2525" d="M30.388,68.399l-0.443,0.469c-1.66,3.653,0.167,6.171,0.167,6.171c1.632,0.939,4.619,4.01,4.619,4.01
		s0.968-2.766,0.968-5.339c0-2.572,0.166-4.011,0.166-4.011C31.162,66.767,30.388,68.399,30.388,68.399z"/>
	<path fill="#BA2525" d="M57.109,71.359c-0.498,0.139-0.581,1.079-0.581,1.079l-0.276,0.442c0.774,1.162-0.139,4.177-0.139,4.177
		h-0.47c-0.72-0.249-1.632-3.07-1.632-3.07l-0.333-0.056v1.245c-0.414,1.134-1.051,1.106-1.051,1.106
		c-0.996-0.193-1.245-1.577-1.41-2.296C51.052,73.269,50,73.213,50,73.213v-0.001c0,0-1.051,0.057-1.218,0.775
		c-0.166,0.719-0.415,2.103-1.41,2.296c0,0-0.636,0.027-1.051-1.107v-1.244l-0.332,0.056c0,0-0.913,2.821-1.632,3.07h-0.47
		c0,0-0.913-3.015-0.139-4.178l-0.276-0.442c0,0-0.083-0.939-0.581-1.079l-1.521,3.348l-0.83-1.328c0,0,0.968,2.463,1.176,3.403
		c0.207,0.94,0.954,3.264,1.175,3.65c0.222,0.388,1.688,3.319,1.688,3.319l0.442,0.222c0,0,0.636-0.607,0.803-0.635
		c0.166-0.028,0.913,0.027,0.913,0.027l0.139,0.304l0.193,0.304c0,0,0.692-0.498,0.775-0.525s0.525-0.109,0.608-0.055
		c0.083,0.055,0.304,0.331,0.304,0.331l0.222-0.304l0.636-0.082L50,83.529v0.001l0.388-0.192l0.636,0.082l0.222,0.304
		c0,0,0.222-0.276,0.304-0.331c0.083-0.055,0.525,0.027,0.608,0.055c0.084,0.027,0.775,0.525,0.775,0.525l0.192-0.304l0.14-0.304
		c0,0,0.747-0.055,0.912-0.027c0.166,0.027,0.803,0.635,0.803,0.635l0.442-0.221c0,0,1.466-2.932,1.688-3.32
		c0.221-0.386,0.968-2.71,1.175-3.65c0.208-0.94,1.177-3.402,1.177-3.402l-0.831,1.327L57.109,71.359z"/>
	<path fill="#BA2525" d="M87.376,99.29h4.396c2.566-1.928,4.826-4.528,7.284-6.307c0.081-0.06,0.16-0.082,0.234-0.077v-5.429
		c-0.309,0.274-0.62,0.545-0.927,0.818C94.635,91.641,90.145,94.962,87.376,99.29z"/>
	<path fill="#BA2525" d="M96.95,88.455c0.776-0.69,1.559-1.374,2.34-2.063v-2.372c-1.876,1.574-3.699,3.212-5.476,4.888
		c-1.456,1.371-2.882,2.771-4.282,4.195c-1.709,2.073-3.407,4.152-5.161,6.187h2.041C89.026,95.008,93.262,91.728,96.95,88.455z"/>
	<path fill="#BA2525" d="M99.29,82.972v-1.147c-1.468,1.657-2.941,3.31-4.401,4.972C96.327,85.49,97.794,84.211,99.29,82.972z"/>
	<path fill="#BA2525" d="M93.031,99.29h0.198c3.136,0,5.716-2.382,6.029-5.436C97.132,95.438,95.169,97.534,93.031,99.29z"/>
	<path fill="#BA2525" d="M96.201,18.054c0.989-0.195,1.985-0.338,2.96-0.588c0.043-0.054,0.087-0.107,0.129-0.161V6.771
		c0-3.349-2.714-6.062-6.061-6.062H6.771c-3.347,0-6.062,2.713-6.062,6.062v86.458c0,3.348,2.714,6.062,6.062,6.062h75.927
		c0.688-0.793,1.379-1.583,2.085-2.359c1.313-1.445,2.654-2.862,4.018-4.258c0.973-1.178,1.949-2.352,2.944-3.509
		c2.477-2.881,5.025-5.708,7.545-8.561V19.411c-0.288,0.242-0.651,0.387-1.125,0.37c-0.386-0.013-0.513-0.428-0.292-0.704
		c0.155-0.194,0.312-0.389,0.465-0.583c-0.399,0.077-0.802,0.146-1.204,0.22c-0.182,0.033-1.163,0.196-1.742,0.32
		c-0.05,0.205-0.234,0.383-0.499,0.319c-0.021-0.005-0.169,0.083-0.217,0.092c-0.307,0.059-0.587-0.185-0.507-0.507
		C94.336,18.268,95.649,18.163,96.201,18.054z M73.747,1.799c0.397-0.109,0.943,0.132,1.015,0.577
		c0.005,0.023,0.019,0.06,0.023,0.072c0.013,0.029,0.027,0.058,0.041,0.087c0.045,0.088,0.09,0.174,0.137,0.261
		c0.24-0.212,0.447-0.462,0.629-0.755c0.56-0.901,1.987-0.074,1.424,0.833c-0.475,0.766-1.104,1.446-1.945,1.808
		c-0.394,0.169-0.905,0.14-1.129-0.296c-0.245-0.48-0.683-1.033-0.771-1.572C73.1,2.37,73.278,1.928,73.747,1.799z M68.468,6.582
		c1.063,0,1.063,1.649,0,1.649C67.403,8.231,67.403,6.582,68.468,6.582z M65.125,12.181c0.832-1.13,1.861-1.962,3-2.771
		c0.892-0.633,1.741-1.315,2.584-2.008c-0.019-0.012-0.033-0.027-0.051-0.038c-0.349-0.113-0.686-0.191-0.927-0.247
		c-0.454-0.104-0.354-0.824,0.11-0.81c0.488,0.015,0.903,0.143,1.253,0.354c0.114,0.043,0.224,0.096,0.336,0.146
		c0.414-0.345,0.829-0.689,1.248-1.031c0.816-0.667,1.99,0.493,1.165,1.167c-0.356,0.291-0.71,0.587-1.063,0.884
		c0.125,0.187,0.207,0.395,0.243,0.623c0.883-0.431,1.774-0.84,2.701-1.185c0.774-0.289,1.4,0.843,0.802,1.379
		c-0.053,0.047-0.111,0.09-0.165,0.137c0.753-0.2,1.548,0.793,0.835,1.358c-0.634,0.504-1.229,1.045-1.797,1.611
		c0.111-0.058,0.222-0.114,0.333-0.173c0.867-0.467,1.572,0.585,1.001,1.295c-0.37,0.366-0.636,0.792-0.8,1.277
		c-0.314,0.718-1.172,0.446-1.427-0.134c-0.585,0.255-1.179,0.485-1.8,0.667c-0.65,0.191-1.369-0.61-0.931-1.212
		c0.229-0.317,0.469-0.625,0.71-0.929c-0.97,0.453-1.946,0.88-2.924,1.264c-0.698,0.274-1.214-0.572-0.958-1.152
		c-0.867,0.458-1.793,0.835-2.769,0.77C65.278,13.384,64.725,12.726,65.125,12.181z M23.977,14.073
		c0.361-0.567,0.869-0.954,1.464-1.063c0.155-0.14,0.337-0.124,0.476-0.027c0.029,0.002,0.058,0,0.089,0.003
		c0.015-0.007,0.029-0.016,0.044-0.022c0.103-0.047,0.201-0.054,0.289-0.036c0.148-0.042,0.309-0.01,0.395,0.12
		c0.015,0.004,0.033,0.006,0.046,0.011c0.228,0.079,0.33,0.275,0.288,0.507c-0.125,0.696-0.432,1.21-0.997,1.487
		c-0.018,0.015-0.034,0.031-0.052,0.044c-0.611,0.449-1.478,0.22-1.833-0.448C23.969,14.551,23.823,14.314,23.977,14.073z
		 M26.104,17.965c-0.142,0.348-0.307,0.742-0.758,0.662c-0.15-0.026-0.264-0.17-0.341-0.288c-0.07-0.105-0.079-0.127-0.14-0.191
		c-0.243-0.256-0.065-0.595,0.188-0.683c0.106-0.3,0.556-0.452,0.735-0.092c0.015,0.031,0.031,0.062,0.046,0.093
		C26.031,17.536,26.188,17.763,26.104,17.965z M8.729,91.907c-0.545,0.399-0.946,0.229-1.555,0.042
		c-0.237-0.074-0.312-0.287-0.275-0.478c-0.667-0.155-1.364-0.247-2.048-0.256c1.182,0.435,2.359,0.995,2.926,2.052
		c0.251,0.469-0.461,0.887-0.712,0.417c-0.731-1.364-2.82-1.765-4.153-2.285c-0.357-0.141-0.427-0.685,0-0.796
		c1.776-0.459,4.039-0.145,5.719,0.55C8.971,91.295,9.033,91.685,8.729,91.907z M72.454,98.15c-1.063,0-1.063-1.65,0-1.65
		S73.518,98.15,72.454,98.15z M82.282,97.989c-0.198,0.145-0.453,0.21-0.698,0.132c-0.078-0.025-0.158-0.049-0.24-0.065
		c-0.029-0.002-0.105-0.009-0.125-0.008c-0.019,0.001-0.029,0.001-0.04,0.001c-0.008,0.003-0.013,0.004-0.023,0.007
		c-0.077,0.019-0.155,0.041-0.232,0.065c-0.429,0.136-0.899-0.155-1.015-0.576c-0.123-0.446,0.148-0.879,0.576-1.015
		c0.405-0.129,0.809-0.152,1.214-0.077c0.107-0.055,0.231-0.09,0.381-0.09C83.069,96.363,83.136,97.792,82.282,97.989z
		 M86.066,91.964c-1.063,0-1.063-1.65,0-1.65S87.13,91.964,86.066,91.964z M92.517,48.787c-0.358,2.13-2.903,3.236-2.903,3.236
		c1.327,2.407-1.357,4.149-1.357,4.149c-0.109,2.074-1.963,4.011-2.572,5.532c-0.607,1.521-0.276,1.742-0.276,1.742
		c1.385,3.21,4.953,1.272,4.953,1.272c0.331,3.403-3.735,5.949-4.151,6.833c-0.414,0.886-0.441,2.463-1.521,3.348
		s-1.715,3.54-2.96,5.753c-1.245,2.214-3.569,3.541-5.671,3.319c-2.102-0.221-2.296,0-2.296,0c1.163,1.577,0,2.573,0,2.573
		c-4.26-1.55-6.915-0.332-6.915-0.332s-0.453,0.023-0.47,0.015c-0.057-0.028-1.036,0.277-1.036,0.277
		c-0.301,0.121-0.707,0.179-0.707,0.179c-2.102,0.608-3.957,3.513-7.192,5.698C54.205,94.567,50,93.462,50,93.462v-0.001
		c0,0-4.205,1.106-7.441-1.079c-3.236-2.185-5.09-5.09-7.192-5.697l-0.705-0.222c0,0-0.982-0.264-1.037-0.235
		c-0.037,0.018-3.125-1.231-7.386,0.317c0,0-1.162-0.995,0-2.572c0,0-0.194-0.222-2.296,0c-2.103,0.222-4.426-1.105-5.671-3.319
		c-1.245-2.213-1.881-4.868-2.959-5.754c-1.079-0.884-1.106-2.462-1.521-3.347c-0.415-0.885-4.481-3.43-4.149-6.833
		c0,0,3.568,1.937,4.952-1.272c0,0,0.332-0.221-0.277-1.742c-0.608-1.521-2.462-3.459-2.572-5.533c0,0-2.684-1.743-1.355-4.148
		c0,0-2.545-1.106-2.905-3.237c0,0-5.311-4.537,2.601-8.907c0,0,3.209-1.328-0.637-6.722c0,0,5.173,2.877,4.481,4.703
		c-0.691,1.826-3.458,4.481,1.411,7.386c0,0,1.577,0.691,2.572-0.332l-1.743-6.667l-0.857-3.458l-0.083-0.857l-0.138-1.107
		l-0.387-0.995l-0.36-0.775l-1.466-6.39l-0.083-1.051c0,0-0.083-0.526-0.111-0.691c-0.027-0.167-0.027-1.162-0.027-1.162
		l-0.304-0.554l-0.027-3.043l0.83-2.213c0,0,0.249-5.864,1.272-7.634l0.277-0.747c0,0-0.139-1.189,0.304-1.3
		c0.443-0.111,1.466,0.525,1.577,1.549s0.885,1.134,0.885,1.134s1.3,1.964,1.937,5.45l0.415,0.941c0,0,0.443,0.746,0.664,1.355
		c0.222,0.608,0.499,1.438,0.968,2.268c0.471,0.83,1.632,3.402,1.632,3.402l3.043,5.588c0,0-0.581-4.731,0.83-4.896l0.912,0.166
		l1.522,1.024l1.272,0.913l0.442,0.304h0.416l1.328,0.996c0,0,9.516,4.26,17.15,3.513v0c7.635,0.747,17.151-3.513,17.151-3.513
		l1.327-0.996h0.415l0.442-0.304l1.272-0.913l1.522-1.023l0.911-0.166c1.412,0.166,0.831,4.896,0.831,4.896l3.042-5.588
		c0,0,1.162-2.572,1.633-3.402c0.471-0.83,0.747-1.659,0.969-2.268c0.221-0.609,0.663-1.355,0.663-1.355l0.415-0.94
		c0.636-3.486,1.937-5.45,1.937-5.45s0.774-0.11,0.885-1.134c0.111-1.024,1.135-1.66,1.577-1.549c0.441,0.111,0.304,1.3,0.304,1.3
		l0.277,0.747c1.023,1.771,1.272,7.635,1.272,7.635l0.829,2.213l-0.027,3.042l-0.304,0.554c0,0,0,0.996-0.028,1.162
		c-0.027,0.166-0.111,0.691-0.111,0.691l-0.082,1.051l-1.467,6.39l-0.359,0.774l-0.388,0.996l-0.138,1.107l-0.083,0.857
		l-0.857,3.458l-1.742,6.667c0.995,1.023,2.571,0.332,2.571,0.332c4.868-2.905,2.104-5.561,1.412-7.386
		c-0.692-1.826,4.48-4.703,4.48-4.703c-3.846,5.395-0.636,6.722-0.636,6.722C97.828,44.25,92.517,48.787,92.517,48.787z"/>
	<path fill="#BA2525" d="M69.612,68.4c0,0-0.774-1.634-5.477,1.3c0,0,0.167,1.438,0.167,4.011c0,2.572,0.967,5.339,0.967,5.339
		s2.987-3.071,4.62-4.011c0,0,1.825-2.518,0.166-6.169L69.612,68.4z"/>
	<path fill="#BA2525" d="M70.498,51.23c-0.277-0.71-1.383-1.364-1.383-1.364c-6.17-1.716-13.002,3.099-13.002,3.099
		c-0.525,0.995,0.498,2.184,0.498,2.184c1.079,0.112,0.803,1.136,0.803,1.136c1.798,3.043,4.813,2.488,4.813,2.488l5.174-2.157
		C70.746,54.623,70.774,51.941,70.498,51.23z"/>
	<path fill="#BA2525" d="M60.721,73.35c-0.802-0.193-1.095,0.029-1.095,0.029l0.938,0.312c1.106,1.384,1.58,8.208,1.58,8.208
		C62.062,79.657,61.523,73.543,60.721,73.35z"/>
</g>
</svg>
